<svg width="72" height="56" viewBox="0 0 72 56" fill="none" xmlns="http://www.w3.org/2000/svg">
<g clip-path="url(#clip0_451_29522)">
<path d="M13.55 55.9996L4.89136 51.2733L4.96731 12.8447L13.6184 17.5711L13.55 55.9996Z" fill="#6863AB"/>
<path d="M24.138 4.72656L24.0468 54.5213L13.5501 56.0002L13.6184 17.5716L8.65869 18.273L8.67388 6.9068L24.138 4.72656Z" fill="#9E9EDD"/>
<path d="M8.65867 18.2732L0 13.5469L0.022786 2.18066L8.67386 6.90705L8.65867 18.2732Z" fill="#6863AB"/>
<path d="M8.6739 6.90662L0.0228271 2.18023L15.4793 0L24.138 4.72638L8.6739 6.90662Z" fill="#7C77B6"/>
</g>
<g clip-path="url(#clip1_451_29522)">
<path d="M56.2328 4.68463C58.6826 4.31969 61.1856 4.63449 63.4687 5.59472L56.009 1.56648C53.473 0.224015 50.5759 -0.277557 47.7362 0.134213L56.1358 4.70701L56.2328 4.68463Z" fill="#6965AC"/>
<path d="M32.1379 19.082L40.642 23.707V41.3567C40.642 47.3245 43.514 52.1434 47.8555 54.5007L39.3515 49.8757C35.0099 47.5184 32.1379 42.6845 32.1379 36.7317V19.082Z" fill="#6863AB"/>
<path d="M40.6718 23.6319C40.6868 14.4266 47.6168 5.96728 56.1358 4.70659L47.7362 0.133789C47.3856 0.186007 47.0424 0.253144 46.6993 0.327741L46.4307 0.379959C38.2176 2.28218 32.1827 10.831 32.1379 19.0814L40.642 23.7065L40.6718 23.6319Z" fill="#827EB9"/>
<path d="M58.9929 16.2842L50.4963 11.6592C51.2657 12.1069 51.8982 12.7562 52.3255 13.5371C52.7527 14.3181 52.9585 15.2009 52.9207 16.0902V33.7399C52.9014 34.8216 52.6248 35.8831 52.1137 36.8365C51.6026 37.79 50.8717 38.608 49.9816 39.2228C49.2424 39.7276 48.3844 40.031 47.4922 40.1029C46.6 40.1749 45.7045 40.0129 44.894 39.6331C46.662 40.6178 48.4449 41.5726 50.2277 42.5349C51.7793 43.3704 53.4279 44.6161 55.2332 44.7728C58.6348 45.0563 61.4173 41.5651 61.4247 38.3724V20.7227C61.4624 19.8315 61.2558 18.9469 60.8272 18.1647C60.3986 17.3824 59.7643 16.7321 58.9929 16.2842Z" fill="#6965AC"/>
<path d="M51.2198 38.0889C51.1378 38.1858 51.0408 38.2828 50.9513 38.3723V38.9318L59.0749 43.3554H59.1197C59.2838 43.2062 59.4404 43.0421 59.5971 42.878C59.5971 42.8332 59.6717 42.781 59.709 42.7437L51.2198 38.0889Z" fill="#827EB9"/>
<path d="M56.1582 44.7585C56.9446 44.642 57.6958 44.3542 58.3588 43.9156L50.9513 39.8799C50.9588 42.9533 53.2862 45.139 56.1582 44.7585Z" fill="#827EB9"/>
<path d="M56.2328 4.68415C64.7965 3.48314 71.749 10.0253 71.7341 19.2679V36.9101C71.7341 46.1526 64.7369 54.6567 56.1731 55.8577C47.6094 57.0587 40.6196 50.524 40.642 41.2815V23.6318C40.6868 14.3892 47.6691 5.89262 56.2328 4.68415ZM61.3949 38.3647V20.7151C61.3949 17.6044 59.06 15.4037 56.1731 15.8066C53.2862 16.2094 50.9513 19.0739 50.9513 22.1846L50.914 39.8268C50.914 42.9375 53.2489 45.1381 56.1358 44.7353C59.0227 44.3325 61.3576 41.468 61.3576 38.3647" fill="#9E9EDD"/>
</g>
<defs>
<clipPath id="clip0_451_29522">
<rect width="24.1379" height="56" fill="white"/>
</clipPath>
<clipPath id="clip1_451_29522">
<rect width="39.5961" height="56" fill="white" transform="translate(32.1379)"/>
</clipPath>
</defs>
</svg>
