<svg width="40" height="56" viewBox="0 0 40 56" fill="none" xmlns="http://www.w3.org/2000/svg">
<path d="M12.9075 27.7946C15.3196 24.8036 18.7131 22.7734 22.4799 22.0679L26.3074 21.5282C26.4651 21.5033 26.62 21.4632 26.77 21.4083L20.0551 16.8135L11.848 17.9903L11.4302 18.1777C9.14 19.0552 7.06022 20.409 5.3271 22.1504C2.10396 25.381 0.537151 29.6835 0.134258 34.1734C0.134258 34.4208 0.134258 34.6756 0.0820312 34.923C0.0820312 35.0579 0.0820312 35.1853 0.0820312 35.3202C0.0820312 35.71 0.0820312 36.0698 0.0820312 36.5195L8.58009 41.1668C8.54279 34.4807 10.9154 30.2007 12.9075 27.7946Z" fill="#02A4BA"/>
<path d="M26.7775 21.4082C27.394 21.1734 27.9259 20.7575 28.3038 20.2147C28.6818 19.6719 28.8882 19.0274 28.8964 18.365C28.9193 18.0257 28.8668 17.6855 28.7428 17.3691C28.6187 17.0527 28.4262 16.7679 28.1791 16.5355C27.932 16.303 27.6365 16.1287 27.3141 16.0251C26.9917 15.9214 26.6504 15.8912 26.3149 15.9364L18.3466 17.0607L26.77 21.4082H26.7775Z" fill="#11ACC1"/>
<path d="M18.8316 43.3629L10.3335 38.7156L29.1725 36.0547L37.678 40.702L18.8316 43.3629Z" fill="#11ACC1"/>
<path d="M8.50552 56.0001L0 51.3528L0.0298439 36.5264L8.5279 41.1737L8.50552 56.0001Z" fill="#11ACC1"/>
<path d="M9.52772 18.3048L1.02966 13.6575L1.04459 2.48145L9.55011 7.12875L9.52772 18.3048Z" fill="#11ACC1"/>
<path d="M26.3372 4.76047C33.4401 3.74856 39.2149 9.20539 39.2 16.9109C39.1851 24.6164 33.3953 31.6923 26.285 32.6968L22.5545 33.2215C20.0849 33.6937 18.824 35.8824 18.824 39.7202V43.3631L37.6779 40.7021V51.8856L8.50549 56.0007V41.1743C8.50549 34.4882 10.893 30.2007 12.8851 27.7946C15.2972 24.8036 18.6908 22.7734 22.4575 22.0679L26.285 21.5282C27.0133 21.3814 27.6687 20.9864 28.1404 20.41C28.6122 19.8337 28.8713 19.1113 28.874 18.3651C28.8969 18.0258 28.8444 17.6856 28.7204 17.3692C28.5963 17.0528 28.4038 16.768 28.1567 16.5355C27.9096 16.3031 27.6141 16.1288 27.2917 16.0251C26.9693 15.9215 26.628 15.8912 26.2925 15.9365L9.50526 18.3051V7.1291L26.3372 4.76047Z" fill="#10D4EF"/>
<path d="M27.4042 4.66256H27.7324C29.612 4.61226 31.4734 5.04302 33.1417 5.91433L28.5531 3.40329C27.2997 2.71369 26.0313 1.90416 24.7182 1.28202C24.2492 1.04992 23.7685 0.842261 23.2782 0.659879C21.8834 0.153053 20.4025 -0.0711347 18.921 0.000261518L27.1729 4.68504L27.4042 4.66256Z" fill="#11ACC1"/>
<path d="M17.8318 0.112435L1.04456 2.48106L9.55008 7.12836L26.3373 4.75974C26.6208 4.75974 26.8969 4.69977 27.1729 4.68478L18.9211 0C18.5563 0.0184137 18.1927 0.055943 17.8318 0.112435Z" fill="#15BBD2"/>
</svg>
