<svg width="38" height="56" viewBox="0 0 38 56" fill="none" xmlns="http://www.w3.org/2000/svg">
<path d="M27.1213 39.0955C27.1213 39.0122 27.1744 38.9364 27.1971 38.8531L27.2652 38.6259C27.2652 38.535 27.2652 38.4442 27.3258 38.3533C27.3446 38.286 27.3598 38.2177 27.3713 38.1488C27.3713 38.0427 27.3713 37.9367 27.4167 37.8383C27.4204 37.7777 27.4204 37.717 27.4167 37.6565C27.4167 37.4974 27.4167 37.3308 27.4167 37.1642C27.445 36.4027 27.2654 35.6478 26.8971 34.9806C26.5289 34.3135 25.9858 33.7592 25.3264 33.3773L16.6999 28.6816C17.3583 29.0648 17.9004 29.6193 18.2685 30.2862C18.6366 30.953 18.8169 31.7072 18.7903 32.4685C18.7903 32.6351 18.7903 32.8017 18.7903 32.9608V33.1198L18.7448 33.4531L18.6994 33.6424L18.6312 33.9302C18.6312 33.9984 18.5858 34.059 18.5706 34.1271C18.5449 34.2145 18.5146 34.3005 18.4797 34.3846C18.3943 34.6185 18.2931 34.8462 18.1768 35.0663L18.1086 35.195C18.01 35.3752 17.9013 35.5497 17.783 35.7176L17.7375 35.7782C17.64 35.9209 17.5338 36.0575 17.4194 36.1872L17.3058 36.3159C17.1998 36.4295 17.0938 36.5356 16.9801 36.6416L16.8817 36.7325C16.7313 36.8693 16.5719 36.9958 16.4045 37.1112L16.3061 37.1793C16.0969 37.3229 15.8765 37.4495 15.6472 37.558H15.5942C15.4275 37.6338 15.2458 37.7019 15.0716 37.7625L14.9201 37.808C14.7233 37.8625 14.5236 37.9055 14.3218 37.9367L22.9558 42.6324C23.1576 42.6012 23.3574 42.5582 23.5541 42.5037L23.7056 42.4582C23.8823 42.3976 24.0565 42.3295 24.2282 42.2537H24.2661C24.4987 42.1469 24.7217 42.0202 24.9325 41.875H24.9931H25.031C25.1983 41.7596 25.3577 41.6331 25.5081 41.4964L25.5763 41.4282L25.902 41.1025L25.9626 41.0344L26.0535 40.898C26.1671 40.7693 26.2731 40.633 26.3715 40.4966C26.3681 40.4791 26.3681 40.4611 26.3715 40.4436C26.4916 40.2742 26.6004 40.0971 26.6972 39.9135V39.8604C26.6944 39.8378 26.6944 39.8149 26.6972 39.7923C26.8135 39.5722 26.9148 39.3445 27.0002 39.1106L27.1213 39.0955Z" fill="#4F6E00"/>
<path d="M8.61131 55.9996L0 51.266L0.0757371 39.9736L8.67947 44.7072L8.61131 55.9996Z" fill="#4F6E00"/>
<path d="M8.6643 44.6852L0.0378418 39.9895L14.3219 37.9824L22.9559 42.6781L8.6643 44.6852Z" fill="#6D862B"/>
<path d="M24.8191 19.6917C24.8191 19.5705 24.8872 19.4494 24.9175 19.3282C24.9362 19.2685 24.9514 19.2078 24.963 19.1464C24.9892 18.9506 24.9993 18.7531 24.9933 18.5557C25.0096 18.1111 24.9047 17.6705 24.6899 17.281C24.4751 16.8915 24.1585 16.5676 23.7739 16.3441L15.1475 11.6484C15.5332 11.8725 15.8506 12.1976 16.0655 12.5886C16.2803 12.9796 16.3845 13.4217 16.3668 13.8675C16.3642 14.058 16.3465 14.2479 16.3138 14.4356C16.3138 14.5037 16.2759 14.5643 16.2608 14.6249C16.2456 14.6855 16.2002 14.8673 16.1623 14.9884V15.049C16.1044 15.1939 16.0387 15.3355 15.9654 15.4732L15.8972 15.5792C15.8285 15.6949 15.7526 15.8062 15.67 15.9124L15.5943 16.0033C15.4904 16.1286 15.3764 16.2451 15.2535 16.3517L15.1777 16.4123C15.0793 16.4947 14.9755 16.5706 14.8672 16.6395L14.6855 16.7455C14.5875 16.7996 14.4863 16.8477 14.3825 16.8894L14.2462 16.9425C14.0939 16.9979 13.9367 17.0385 13.7766 17.0636L22.4106 21.7593C22.5707 21.7342 22.728 21.6936 22.8802 21.6382L23.0165 21.5851L23.168 21.5246C23.2185 21.5013 23.2666 21.4734 23.3119 21.4412L23.5013 21.3352L23.5921 21.2822L23.8118 21.108L23.8875 21.0474C23.9815 20.9622 24.07 20.8711 24.1526 20.7748L24.2056 20.7142L24.2813 20.6157L24.3874 20.4794C24.4328 20.4188 24.4707 20.3506 24.5086 20.29C24.5316 20.2564 24.5518 20.2209 24.5691 20.184V20.131C24.6297 20.0098 24.6827 19.8886 24.7358 19.7599V19.6993L24.8191 19.6917Z" fill="#4F6E00"/>
<path d="M20.7823 1.32509L20.3809 1.11303C19.7176 0.794741 19.0252 0.541112 18.3133 0.355658C16.8283 -0.0188415 15.284 -0.096059 13.769 0.128447L22.4031 4.82415C23.9055 4.60348 25.4368 4.68068 26.9094 5.05136C27.6221 5.23429 28.3148 5.48801 28.977 5.80873C29.1134 5.87689 29.2497 5.94505 29.3785 6.02079L20.7823 1.32509Z" fill="#4F6E00"/>
<path d="M8.68701 34.9678L0.0529785 30.2721L0.0756996 18.9873L8.70973 23.683L8.68701 34.9678Z" fill="#4F6E00"/>
<path d="M8.70971 23.6829L0.0756836 18.9872L13.7689 17.0635L22.3954 21.7592L8.70971 23.6829Z" fill="#6D862B"/>
<path d="M8.73998 6.74051L0.105957 2.04482L13.7992 0.121094L22.4332 4.81679L8.73998 6.74051Z" fill="#6D862B"/>
<path d="M8.71728 18.0254L0.083252 13.3373L0.105973 2.04492L8.74 6.74062L8.71728 18.0254Z" fill="#4F6E00"/>
<path d="M22.4333 4.81699C29.6435 3.78697 35.498 9.3082 35.4828 17.0864C35.4683 19.7996 34.7813 22.4668 33.4834 24.8494C34.9381 26.2533 36.0847 27.9445 36.8501 29.8157C37.6155 31.6868 37.983 33.6968 37.9291 35.7177C37.9291 44.632 31.1885 52.8116 22.9332 53.9779L8.64917 55.985V44.685L22.9408 42.678C24.2119 42.4269 25.3564 41.742 26.1784 40.7404C27.0004 39.7388 27.4488 38.4827 27.4471 37.187C27.4471 34.5059 25.4401 32.6428 22.9559 32.9609L8.68704 34.9679V23.6831L22.3803 21.7594C23.118 21.6077 23.7808 21.2062 24.2569 20.6225C24.7329 20.0389 24.993 19.3089 24.9932 18.5557C25.0163 18.2136 24.9632 17.8706 24.8377 17.5515C24.7122 17.2324 24.5174 16.9452 24.2675 16.7104C24.0175 16.4757 23.7186 16.2993 23.3923 16.1941C23.0659 16.0889 22.7203 16.0573 22.3803 16.1018L8.71733 18.0255V6.74071L22.4333 4.81699Z" fill="#A2C927"/>
</svg>
