<svg width="42" height="56" viewBox="0 0 42 56" fill="none" xmlns="http://www.w3.org/2000/svg">
<g clip-path="url(#clip0_465_33835)">
<path d="M31.095 55.9996L22.4045 51.2733L22.4731 12.8447L31.1636 17.5711L31.095 55.9996Z" fill="#B82B1C"/>
<path d="M21.2916 36.9194L12.6012 32.193L19.7136 31.1943L28.4041 35.9207L21.2916 36.9194Z" fill="#C44F42"/>
<path d="M12.2657 48.2628L3.58291 43.5365C2.41425 42.8918 1.46813 41.9085 0.86905 40.7159C0.34437 39.631 0.0491881 38.4496 0.00196704 37.2454C-0.0452541 36.0413 0.156502 34.8404 0.594615 33.7178L9.28506 38.4442C8.84757 39.5666 8.6455 40.7671 8.69139 41.9709C8.73729 43.1748 9.03018 44.3563 9.55187 45.4423C10.1529 46.6335 11.0985 47.6163 12.2657 48.2628Z" fill="#A61F11"/>
<path d="M1.2502 32.292C1.22692 32.3285 1.20653 32.3667 1.18921 32.4063C0.959935 32.8286 0.761223 33.2668 0.594604 33.7175L9.28505 38.4439C9.46136 37.9923 9.67028 37.5541 9.91015 37.1327L9.97876 37.0184L1.2502 32.292Z" fill="#B82B1C"/>
<path d="M41.7218 4.72656L41.6227 54.5213L31.0951 56.0002L31.1637 17.5716H30.9045L21.2916 36.9193L28.4041 35.9207V47.2869L16.4052 48.9716C15.0347 49.1915 13.6298 48.9677 12.3955 48.3327C11.1613 47.6977 10.1623 46.6849 9.5443 45.4421C8.92498 44.1174 8.63679 42.6621 8.70451 41.2013C8.77224 39.7406 9.19385 38.3182 9.93308 37.0565L24.8364 7.09738L41.7218 4.72656Z" fill="#F47C73"/>
<path d="M9.94069 37.0185L1.25024 32.2921L16.1536 2.37109L24.8364 7.09748L9.94069 37.0185Z" fill="#B82B1C"/>
<path d="M24.8364 7.0972L16.1536 2.37081L33.0313 0L41.7218 4.72638L24.8364 7.0972Z" fill="#C44F42"/>
</g>
<defs>
<clipPath id="clip0_465_33835">
<rect width="41.7218" height="56" fill="white"/>
</clipPath>
</defs>
</svg>
