<svg width="40" height="56" viewBox="0 0 40 56" fill="none" xmlns="http://www.w3.org/2000/svg">
<g clip-path="url(#clip0_448_29301)">
<path d="M8.3931 8.44427L0.0512695 3.90749L27.8427 0L36.1772 4.53678L8.3931 8.44427Z" fill="#2E87BE"/>
<path d="M0.109761 40.5527V51.463L8.45159 55.9997V45.0895L0.109761 40.5527ZM8.39305 8.44401L0.0512217 3.90723L0 31.1791L8.34183 35.7159L8.39305 8.44401Z" fill="#036EB1"/>
<path d="M24.879 19.1862L24.44 18.9593L24.2717 18.8861C23.1568 18.3663 21.9705 18.016 20.752 17.8471C20.4081 17.8032 20.0642 17.7739 19.7129 17.752L18.4617 17.9276V23.3863L25.523 22.3985C28.1678 21.9947 30.8723 22.4621 33.2282 23.7303L24.879 19.1862Z" fill="#056FB2"/>
<path d="M36.1772 4.53711V15.44L18.4837 17.9279V23.3867L25.545 22.3989C33.5136 21.2793 39.9895 27.3601 39.9749 35.9653C39.9602 44.5706 33.4405 52.488 25.4718 53.6075L8.42961 56.0003V45.0901L25.4645 42.69C26.6987 42.4536 27.8121 41.7948 28.6133 40.8266C29.4145 39.8585 29.8535 38.6415 29.8549 37.3849C29.8549 34.8018 27.9158 32.9944 25.5157 33.3018L8.3418 35.7165L8.39302 8.4446L36.1772 4.53711Z" fill="#3CACE5"/>
<path d="M0.109863 40.5534L8.45169 45.0902L25.4939 42.6901L17.1521 38.1533L0.109863 40.5534Z" fill="#2E87BE"/>
<path d="M29.8475 37.3847C29.8475 34.8017 27.9084 32.9943 25.5083 33.3016L21.3959 33.8797C21.1893 34.9313 20.676 35.8983 19.9207 36.6588C19.1655 37.4192 18.2021 37.9392 17.1519 38.153L25.4864 42.6898C26.7152 42.4475 27.8218 41.786 28.6172 40.8185C29.4126 39.8509 29.8475 38.6372 29.8475 37.3847Z" fill="#056FB2"/>
</g>
<defs>
<clipPath id="clip0_448_29301">
<rect width="39.9603" height="56" fill="white"/>
</clipPath>
</defs>
</svg>
