<svg width="40" height="56" viewBox="0 0 40 56" fill="none" xmlns="http://www.w3.org/2000/svg">
<g clip-path="url(#clip0_448_29263)">
<path d="M0 19.1982V34.8791V36.7196C0 42.6713 2.85714 47.4951 7.17625 49.8327L15.6289 54.4339L15.2059 54.1741C11.1317 51.74 8.44527 47.0721 8.46011 41.3504V39.5099V23.7994L0 19.1982Z" fill="#6863AB"/>
<path d="M21.4398 6.4193L34.2932 4.60111L25.8331 0L12.9796 1.81818C9.61964 2.40588 6.55992 4.12026 4.30432 6.67904L12.616 11.4731C14.8535 8.78178 17.9863 6.98746 21.4398 6.4193Z" fill="#7C77B6"/>
<path d="M0.170686 15.6954C0.170686 15.8513 0.118738 16.0071 0.103896 16.1629C0.0593692 16.6305 0.0371058 17.1054 0.0371058 17.5804V19.1982H0L8.46011 23.7993V22.1815C8.52566 18.2309 9.99938 14.4334 12.616 11.4728L4.30427 6.67871C2.03852 9.19201 0.596083 12.3384 0.170686 15.6954Z" fill="#827EB9"/>
<path d="M15.6364 54.4345H15.577L15.2059 54.2119L15.6289 54.4717L15.6364 54.4345Z" fill="#7C77B6"/>
<path d="M8.46008 40.8536V41.3508C8.46008 47.0725 11.1317 51.7404 15.2059 54.1746C11.4953 51.733 14.3228 46.9761 14.3302 41.2618L8.48977 23.7998V39.5104L8.46008 40.8536Z" fill="#6863AB"/>
<path d="M23.7477 18.8196L23.2579 18.5525L23.0798 18.4782C22.3401 18.1387 21.5698 17.8704 20.7792 17.6768C20.1768 17.9421 19.6642 18.3762 19.3033 18.9267C18.9424 19.4773 18.7488 20.1206 18.7458 20.7788V23.7473C20.3641 22.8783 22.1224 22.3006 23.9407 22.0404C26.7538 21.6125 29.63 22.1044 32.141 23.443H32.1856L23.7477 18.8196Z" fill="#6965AC"/>
<path d="M23.9184 33.0686C22.6218 33.277 21.4328 33.9146 20.5418 34.8794C20.3041 36.1783 19.7018 37.3829 18.8052 38.3524C18.7455 38.698 18.7157 39.0481 18.7162 39.3988V39.896C18.7162 42.9832 21.039 45.1725 23.911 44.7717C26.783 44.371 29.1058 41.5287 29.1058 38.4341V37.9369C29.1274 36.7348 28.7314 35.5624 27.9852 34.6196C27.6074 34.2215 27.181 33.8725 26.7162 33.5806C25.8647 33.1087 24.8819 32.9288 23.9184 33.0686Z" fill="#6965AC"/>
<path d="M23.9407 22.0042C32.4676 20.7797 39.3841 27.3103 39.3321 36.5125V37.0097C39.3321 46.2045 32.3711 54.6572 23.8442 55.852C15.3173 57.0468 8.43787 50.5459 8.46014 41.3511V39.5107V22.1823C8.46014 14.5014 14.2857 7.4216 21.41 6.41974L34.2932 4.60156V15.6665L21.4249 17.4847C20.6648 17.6366 19.9814 18.0487 19.4925 18.6501C19.0035 19.2515 18.7395 20.0046 18.7459 20.7797V23.7481C20.3616 22.8663 22.1201 22.2759 23.9407 22.0042ZM29.1355 38.4494V37.9522C29.1355 34.8576 26.8052 32.6684 23.9407 33.0691C21.0761 33.4698 18.7459 36.3196 18.7459 39.4142V39.9114C18.7459 42.9986 21.0687 45.1878 23.9407 44.7871C26.8126 44.3863 29.1355 41.544 29.1355 38.4494Z" fill="#9E9EDD"/>
<path d="M18.731 39.1091L26.7161 43.4653C26.9241 43.2908 27.12 43.1024 27.3024 42.9013L18.82 38.2705C18.7716 38.5477 18.7419 38.8279 18.731 39.1091Z" fill="#7773B3"/>
<path d="M23.8962 44.787C24.6908 44.674 25.4508 44.3877 26.1225 43.9484L18.7459 39.9336C18.7162 43.0431 21.039 45.1878 23.8962 44.787Z" fill="#7773B3"/>
</g>
<defs>
<clipPath id="clip0_448_29263">
<rect width="39.3618" height="56" fill="white"/>
</clipPath>
</defs>
</svg>
