<svg width="35" height="56" viewBox="0 0 35 56" fill="none" xmlns="http://www.w3.org/2000/svg">
<g clip-path="url(#clip0_448_29386)">
<path d="M23.9273 19.7516L15.5317 15.1856L15.5391 12.4092L23.9347 16.9752L23.9273 19.7516Z" fill="#506F03"/>
<path d="M15.1194 28.876C17.5564 25.3799 20.5404 22.2989 23.9569 19.7514L19.899 17.542L11.4371 18.7277C10.4178 19.7247 9.45409 20.777 8.55023 21.8797C6.35951 24.5679 4.54355 27.5408 3.15202 30.7172C0.382181 37.2478 -0.581821 44.4028 0.360852 51.4336L8.75643 55.9702C7.21724 43.6861 11.1278 34.613 15.1194 28.876Z" fill="#607C1A"/>
<path d="M8.39558 19.1554L0 14.5894L0.0220936 3.61621L8.41031 8.18223L8.39558 19.1554Z" fill="#506F03"/>
<path d="M8.41019 8.18201L0.0219727 3.61599L25.739 0L34.1272 4.56602L8.41019 8.18201Z" fill="#6D862B"/>
<path d="M34.1273 4.56641V21.77C34.1145 22.9255 33.7948 24.0569 33.2008 25.0482C32.6068 26.0395 31.7599 26.855 30.7469 27.4112C27.5368 29.374 24.7905 32.0098 22.6975 35.1366C19.0152 40.6306 17.8074 47.1408 19.0152 54.5569L8.70486 56.0299C7.21723 43.6869 11.1278 34.6137 15.1194 28.8768C17.5564 25.3806 20.5404 22.2996 23.9568 19.7521V16.9757L8.39555 19.1482V8.17503L34.1273 4.56641Z" fill="#A2C927"/>
</g>
<defs>
<clipPath id="clip0_448_29386">
<rect width="34.1273" height="56" fill="white"/>
</clipPath>
</defs>
</svg>
