<svg width="39" height="56" viewBox="0 0 39 56" fill="none" xmlns="http://www.w3.org/2000/svg">
<g clip-path="url(#clip0_448_29395)">
<path d="M6.29106 4.63454C1.69405 9.38081 -0.231324 17.4927 2.88808 23.5077C3.21002 24.1281 3.58453 24.7198 4.00748 25.2763L12.5149 29.9032C10.7429 27.4897 9.81214 24.5611 9.86569 21.5674V21.2689C9.86569 13.1719 16 5.72409 23.5 4.67185C24.1324 4.57849 24.7713 4.53607 25.4105 4.54499L18.1717 0.0673762C15.9785 -0.0802928 13.7794 0.251809 11.7276 1.04056C9.67583 1.82932 7.82059 3.05577 6.29106 4.63454Z" fill="#BF4032"/>
<path d="M30.7686 5.91778L21.8134 1.0745L21.6567 1.00733C20.5553 0.501168 19.3777 0.180915 18.1716 0.0595703L25.4104 4.53718C27.1838 4.56024 28.928 4.99181 30.5075 5.79838L30.7686 5.91778Z" fill="#BA3425"/>
<path d="M34.403 26.8656C37.0603 29.6854 38.4978 33.4399 38.403 37.3134V37.6566C38.403 46.5596 31.6866 54.7537 23.403 55.9104C15.1194 57.0671 8.45521 50.7462 8.4776 41.791V41.4402C8.52198 37.249 9.94029 33.1881 12.5149 29.8805C10.7435 27.4751 9.81259 24.5539 9.86566 21.5671V21.2686C9.86566 13.1716 16 5.72381 23.5 4.67157C31 3.61933 37.1045 9.34321 37.0895 17.4402V17.7462C37.0705 20.9783 36.1393 24.1394 34.403 26.8656ZM28.0895 39.0596V38.7089C28.0895 35.9402 26.0149 33.9775 23.4477 34.3432C22.1332 34.6011 20.9492 35.3078 20.0984 36.3425C19.2475 37.3771 18.7827 38.6753 18.7836 40.0148V40.3656C18.7836 43.1343 20.8657 45.0895 23.4254 44.7313C24.7386 44.4708 25.921 43.7633 26.7713 42.7292C27.6217 41.6952 28.0875 40.3984 28.0895 39.0596ZM20.1492 19.8134V20.1492C20.1186 20.5811 20.1847 21.0144 20.3427 21.4175C20.5007 21.8207 20.7467 22.1834 21.0628 22.4794C21.3788 22.7754 21.7569 22.9972 22.1695 23.1286C22.5821 23.2599 23.0188 23.2976 23.4477 23.2387C24.3784 23.0556 25.2166 22.5553 25.8195 21.8231C26.4224 21.0909 26.7526 20.1723 26.7537 19.2238V18.9178C26.7842 18.4857 26.718 18.0521 26.56 17.6487C26.402 17.2453 26.1561 16.8822 25.8403 16.5856C25.5245 16.2891 25.1465 16.0666 24.734 15.9343C24.3214 15.802 23.8846 15.7632 23.4552 15.8208C22.5296 16.0058 21.6959 16.5035 21.0939 17.2305C20.4919 17.9575 20.1583 18.8695 20.1492 19.8134Z" fill="#F47C73"/>
<path d="M23.4776 15.7908C22.5429 15.9722 21.7002 16.4724 21.0932 17.206C20.4862 17.9396 20.1526 18.8611 20.1493 19.8132V20.149C20.1186 20.5809 20.1847 21.0142 20.3427 21.4174C20.5008 21.8205 20.7468 22.1833 21.0628 22.4793C21.3788 22.7753 21.7569 22.997 22.1695 23.1284C22.5821 23.2597 23.0188 23.2974 23.4478 23.2386C24.3784 23.0554 25.2166 22.5551 25.8195 21.8229C26.4224 21.0908 26.7526 20.1721 26.7538 19.2236V18.9177C26.7883 18.4852 26.7259 18.0505 26.5713 17.6452C26.4166 17.2399 26.1735 16.8742 25.8597 16.5747C25.5459 16.2752 25.1693 16.0494 24.7572 15.9138C24.3451 15.7782 23.908 15.7362 23.4776 15.7908Z" fill="#B82D1E"/>
<path d="M25.7164 21.9334C25.844 21.7824 25.9612 21.6228 26.0672 21.4558L20.4403 18.3887C20.3718 18.5786 20.3169 18.7731 20.2761 18.9708L25.7164 21.9334Z" fill="#BF4032"/>
<path d="M20.1493 20.1496C20.1186 20.5815 20.1847 21.0148 20.3427 21.418C20.5008 21.8211 20.7468 22.1839 21.0628 22.4799C21.3788 22.7759 21.7569 22.9976 22.1695 23.129C22.5821 23.2603 23.0188 23.298 23.4478 23.2392C24.1373 23.1442 24.7835 22.8483 25.306 22.3884L20.2015 19.6123C20.2015 19.6944 20.2015 19.769 20.2015 19.8511L20.1493 20.1496Z" fill="#BF4032"/>
<path d="M23.4254 44.7317C24.7386 44.4712 25.921 43.7637 26.7713 42.7297C27.6217 41.6956 28.0875 40.3989 28.0895 39.0601V38.7093C28.0895 35.9407 26.0149 33.978 23.4477 34.3436C22.1332 34.6015 20.9492 35.3083 20.0984 36.3429C19.2475 37.3775 18.7827 38.6757 18.7836 40.0153V40.366C18.7836 43.1347 20.8955 45.0899 23.4254 44.7317Z" fill="#B82D1E"/>
<path d="M18.7836 40.0148V40.3655C18.7836 43.1342 20.8657 45.0894 23.4254 44.7312C24.2901 44.5949 25.105 44.2376 25.791 43.6939L18.791 39.8879C18.791 39.8879 18.7836 39.97 18.7836 40.0148ZM19.0448 38.3506C18.9704 38.5956 18.9106 38.8448 18.8657 39.0969L26.3283 43.1789C26.5069 42.9928 26.6739 42.7959 26.8283 42.5894L19.0448 38.3506Z" fill="#BF4032"/>
<path d="M8.47761 41.7912V41.4405C8.52199 37.2492 9.9403 33.1883 12.5149 29.8808L4.00746 25.2539L3.47761 26.0002L3.25373 26.3435C-1.22388 32.9852 -1.56717 43.433 5.19403 48.7315C5.73776 49.1583 6.31698 49.5378 6.92537 49.8658L15.4254 54.4778L15.3433 54.4255C11.194 52.142 8.46268 47.5076 8.47761 41.7912Z" fill="#B82D1E"/>
</g>
<defs>
<clipPath id="clip0_448_29395">
<rect width="38.403" height="56" fill="white"/>
</clipPath>
</defs>
</svg>
