<svg width="40" height="56" viewBox="0 0 40 56" fill="none" xmlns="http://www.w3.org/2000/svg">
<path d="M29.3383 55.9999L20.791 51.3513L20.8285 32.5547L29.3758 37.2032L29.3383 55.9999Z" fill="#11ACC1"/>
<path d="M25.8744 4.64881C28.1421 4.59814 30.3865 5.11352 32.4049 6.14834L24.4049 1.8072C22.1274 0.527341 19.5404 -0.098002 16.9297 0.000264608C16.5024 0.000264608 16.075 0.0602459 15.6401 0.120227L24.1875 4.76877C24.7472 4.69874 25.3104 4.65869 25.8744 4.64881Z" fill="#11ACC1"/>
<path d="M8.54733 24.3231V23.8282L0 19.1797V19.6745C0 25.6727 2.8866 30.5311 7.25023 32.9004L15.7976 37.5489C11.4339 35.1797 8.53233 30.3137 8.54733 24.3231Z" fill="#02A4BA"/>
<path d="M24.1874 4.78331L15.6401 0.134766C11.2915 0.749573 7.22024 3.41124 4.49859 6.7477C1.62566 10.2573 0.0384205 14.6434 0 19.1788L8.54733 23.8274C8.56232 14.5378 15.5801 5.99793 24.1874 4.78331Z" fill="#15BBD2"/>
<path d="M24.1424 27.8017C27.0365 27.3968 29.3907 24.5252 29.3907 21.3912V20.8963C29.3907 17.7698 27.044 15.558 24.1424 15.9704C22.773 16.1895 21.525 16.8852 20.6185 17.9347C20.3341 19.1183 19.7827 20.2211 19.0065 21.1587C18.9253 21.5585 18.8851 21.9655 18.8865 22.3734V22.8682C18.8466 23.8051 19.077 24.7338 19.5503 25.5434C20.0235 26.353 20.7197 27.0094 21.5557 27.4343L21.8256 27.5467C22.562 27.8338 23.3611 27.9217 24.1424 27.8017Z" fill="#02A4BA"/>
<path d="M19.4113 20.6416C19.2839 20.8215 19.1639 21.0015 19.0289 21.1589C19.0289 21.2489 19.0289 21.3314 18.9915 21.4214L27.4788 26.0399C27.6896 25.8239 27.885 25.5934 28.0636 25.3501L19.4113 20.6416Z" fill="#11ACC1"/>
<path d="M26.8115 26.6321L18.909 22.3359V22.8683C18.869 23.8052 19.0995 24.7339 19.5727 25.5435C20.046 26.3531 20.7421 27.0095 21.5781 27.4343L21.8481 27.5468C22.5799 27.8312 23.3735 27.9191 24.1498 27.8017C25.1246 27.6533 26.0429 27.2498 26.8115 26.6321Z" fill="#11ACC1"/>
<path d="M24.1875 4.78351C32.7948 3.57638 39.7827 10.1518 39.7377 19.4414V54.538L29.3759 56.0375V37.2409C27.7481 38.1466 25.9701 38.7511 24.1275 39.0253C15.5202 40.1949 8.52492 33.6195 8.54742 24.3224V23.8276C8.56241 14.538 15.5802 5.99813 24.1875 4.78351ZM29.4359 21.3908V20.896C29.4359 17.7695 27.0891 15.5576 24.1875 15.97C21.2859 16.3824 18.9392 19.2465 18.9392 22.373V22.8679C18.9392 26.0019 21.2859 28.2137 24.1875 27.8013C27.0891 27.3889 29.4359 24.5248 29.4359 21.3908Z" fill="#10D4EF"/>
</svg>
