<svg width="32" height="32" viewBox="0 0 32 32" fill="none" xmlns="http://www.w3.org/2000/svg">
<path d="M5.33334 8.80957C9.83042 8.80957 14.3519 8.80957 18.849 8.83399C19.5822 8.83399 20.3155 8.88282 21.0242 9.02932C22.4907 9.34673 23.4439 10.2746 23.5905 11.7395C23.7372 13.2534 23.7372 14.7916 23.5661 16.281C23.395 17.8681 22.2218 18.6738 20.5599 19.0157C21.8308 20.7736 22.9795 22.3851 24.1526 24.021C22.7595 24.021 21.1958 24.021 19.8027 24.021C18.8251 22.5805 17.5451 20.4727 16.5186 19.081H15.7776H10.1613H9.24385C9.29273 20.4971 9.21941 22.6049 9.24385 24.021C7.94849 24.021 6.6287 24.021 5.33334 24.021C5.33334 18.9424 5.33334 13.8882 5.33334 8.80957ZM9.24385 15.695C12.5433 15.695 15.7939 15.7683 19.0445 15.6706C20.3888 15.6218 19.9489 14.3765 20.0222 13.5708C20.0711 12.8139 19.8511 12.179 18.9468 12.1546C17.9203 12.1302 16.9182 12.1302 15.8917 12.1302C13.7165 12.1302 11.5168 12.1302 9.26829 12.1302C9.24385 13.3754 9.24385 14.4986 9.24385 15.695Z" fill="#D81617"/>
<circle cx="25.4995" cy="7.49921" r="1.49921" fill="#D81617"/>
</svg>
