<svg width="32" height="32" viewBox="0 0 32 32" fill="none" xmlns="http://www.w3.org/2000/svg">
<path d="M15.3746 16.1774C12.4121 16.1774 9.94976 13.7172 9.94976 10.8061C9.94976 7.79426 12.4121 5.33301 15.3756 5.33301C18.4399 5.33301 20.8005 7.79321 20.8005 10.8061C20.79 13.7822 18.3686 16.1879 15.3924 16.1785C15.3861 16.1785 15.3809 16.1785 15.3746 16.1774ZM15.3746 8.49688C14.1204 8.49688 13.1661 9.5508 13.1661 10.8071C13.1661 12.0613 14.1204 13.0156 15.3756 13.0156C16.6812 13.0156 17.5852 12.0613 17.5852 10.8071C17.5862 9.54975 16.6812 8.49688 15.3746 8.49688ZM17.5349 20.6469L20.6002 23.6094C21.2031 24.2606 21.2031 25.2149 20.6002 25.8179C19.9479 26.4692 18.9422 26.4692 18.4399 25.8179L15.3756 22.8051L12.4121 25.8179C12.1111 26.1189 11.7084 26.2689 11.2554 26.2689C10.9041 26.2689 10.5024 26.1178 10.1501 25.8179C9.54707 25.2149 9.54707 24.2606 10.1501 23.6084L13.2646 20.6458C12.1405 20.3134 11.0603 19.8404 10.0525 19.2416C9.29853 18.84 9.14857 17.8364 9.55022 17.0824C10.0525 16.3295 10.9565 16.1292 11.7608 16.6315C13.9809 17.9864 16.7735 17.9864 18.9936 16.6315C19.7979 16.1292 20.7512 16.3295 21.2031 17.0824C21.6562 17.8364 21.4538 18.839 20.7501 19.2416C19.7969 19.8446 18.6916 20.2966 17.5359 20.6479L17.5349 20.6469Z" fill="#D81617"/>
</svg>
