<svg width="20" height="20" viewBox="0 0 20 20" fill="none" xmlns="http://www.w3.org/2000/svg">
<path d="M6.40554 5.34491C6.11265 5.05202 5.63778 5.05202 5.34488 5.34491C5.05199 5.63781 5.05199 6.11268 5.34488 6.40557L6.40554 5.34491ZM13.5945 14.6552C13.8874 14.948 14.3622 14.948 14.6551 14.6552C14.948 14.3623 14.948 13.8874 14.6551 13.5945L13.5945 14.6552ZM5.34488 13.5945C5.05199 13.8874 5.05199 14.3623 5.34488 14.6552C5.63778 14.948 6.11265 14.948 6.40554 14.6552L5.34488 13.5945ZM14.6551 6.40557C14.948 6.11268 14.948 5.63781 14.6551 5.34491C14.3622 5.05202 13.8874 5.05202 13.5945 5.34491L14.6551 6.40557ZM5.34488 6.40557L9.46967 10.5304L10.5303 9.4697L6.40554 5.34491L5.34488 6.40557ZM9.46967 10.5304L13.5945 14.6552L14.6551 13.5945L10.5303 9.4697L9.46967 10.5304ZM6.40554 14.6552L10.5303 10.5304L9.46967 9.4697L5.34488 13.5945L6.40554 14.6552ZM10.5303 10.5304L14.6551 6.40557L13.5945 5.34491L9.46967 9.4697L10.5303 10.5304Z" fill="#D81617"/>
</svg>
