<svg width="48" height="48" viewBox="0 0 48 48" fill="none" xmlns="http://www.w3.org/2000/svg">
<path fill-rule="evenodd" clip-rule="evenodd" d="M35 35.2617C35 37.3263 33.3049 39 31.214 39H15.786C13.6951 39 12 37.3263 12 35.2617V12.7383C12 10.6737 13.6951 9 15.786 9H26.3868L35 16.5V35.2617ZM20.788 27.4403C20.788 28.3221 20.1458 29.0582 19.0535 29.0582H18.0424V31.0112H17.0165V25.8224H19.0535C20.1458 25.8224 20.788 26.5585 20.788 27.4403ZM19.7621 27.4403C19.7621 27.0176 19.4668 26.7261 19.0019 26.7261H18.0424V28.1472H19.0019C19.4668 28.1472 19.7621 27.863 19.7621 27.4403ZM25.4668 28.4168C25.4668 29.2768 25.4594 29.8088 25.1346 30.2533C24.7582 30.7708 24.2637 31.0112 23.5478 31.0112H21.651V25.8224H23.5478C24.2637 25.8224 24.7582 26.0629 25.1346 26.5803C25.4594 27.0249 25.4668 27.5569 25.4668 28.4168ZM24.4409 28.4168C24.4409 27.6006 24.4187 27.2727 24.2268 27.0468C24.0571 26.8354 23.8061 26.7261 23.4592 26.7261H22.6769V30.1076H23.4592C23.8061 30.1076 24.0571 29.9983 24.2268 29.7869C24.4187 29.561 24.4409 29.2331 24.4409 28.4168ZM27.542 26.7261H29.9777V25.8224H26.5161V31.0112H27.542V28.9051H29.616V28.0014H27.542V26.7261Z" fill="#D81617"/>
<path d="M35 16.4996L26.3868 9V16.4996H35Z" fill="#FEB9BA"/>
</svg>
