<svg width="40" height="40" viewBox="0 0 40 40" fill="none" xmlns="http://www.w3.org/2000/svg">
<path d="M6.66667 33.333H5.66667V34.333H6.66667V33.333ZM15.7071 25.7068C16.0976 25.3163 16.0976 24.6831 15.7071 24.2926C15.3166 23.902 14.6834 23.902 14.2929 24.2926L15.7071 25.7068ZM5.66667 23.333V33.333H7.66667V23.333H5.66667ZM6.66667 34.333H16.6667V32.333H6.66667V34.333ZM7.37378 34.0401L15.7071 25.7068L14.2929 24.2926L5.95957 32.6259L7.37378 34.0401Z" fill="#D81617"/>
<path d="M33.3333 6.66699H34.3333V5.66699H33.3333V6.66699ZM24.2929 14.2932C23.9024 14.6837 23.9024 15.3169 24.2929 15.7074C24.6834 16.098 25.3166 16.098 25.7071 15.7074L24.2929 14.2932ZM34.3333 16.667V6.66699H32.3333V16.667H34.3333ZM33.3333 5.66699H23.3333V7.66699H33.3333V5.66699ZM32.6262 5.95989L24.2929 14.2932L25.7071 15.7074L34.0404 7.3741L32.6262 5.95989Z" fill="#D81617"/>
</svg>
